<svg xmlns="http://www.w3.org/2000/svg" viewBox="0 0 400 400" width="400" height="400">
  <defs>
    <linearGradient id="blueGradient" x1="0%" y1="0%" x2="100%" y2="100%">
      <stop offset="0%" style="stop-color:#2E5C8A;stop-opacity:1" />
      <stop offset="100%" style="stop-color:#4A90C8;stop-opacity:1" />
    </linearGradient>
    <linearGradient id="waveGradient" x1="0%" y1="0%" x2="100%" y2="0%">
      <stop offset="0%" style="stop-color:#5BA3D8;stop-opacity:0.6" />
      <stop offset="100%" style="stop-color:#7EBCE6;stop-opacity:0.3" />
    </linearGradient>
  </defs>
  <circle cx="200" cy="200" r="180" fill="url(#blueGradient)" opacity="0.1"/>
  <path d="M 120 100 L 200 240 L 280 100" stroke="url(#blueGradient)" stroke-width="20" fill="none" stroke-linecap="round" stroke-linejoin="round"/>
  <path d="M 220 140 Q 260 140 280 160" stroke="url(#waveGradient)" stroke-width="3" fill="none" opacity="0.8"/>
  <path d="M 225 155 Q 270 155 295 180" stroke="url(#waveGradient)" stroke-width="3" fill="none" opacity="0.6"/>
  <path d="M 230 170 Q 280 170 310 200" stroke="url(#waveGradient)" stroke-width="3" fill="none" opacity="0.4"/>
  <path d="M 180 140 Q 140 140 120 160" stroke="url(#waveGradient)" stroke-width="3" fill="none" opacity="0.8"/>
  <path d="M 175 155 Q 130 155 105 180" stroke="url(#waveGradient)" stroke-width="3" fill="none" opacity="0.6"/>
  <path d="M 170 170 Q 120 170 90 200" stroke="url(#waveGradient)" stroke-width="3" fill="none" opacity="0.4"/>
  <circle cx="200" cy="240" r="12" fill="#2E5C8A"/>
  <circle cx="200" cy="240" r="8" fill="#ffffff"/>
  <text x="200" y="310" font-family="Arial, sans-serif" font-size="48" font-weight="bold" fill="#2E5C8A" text-anchor="middle">VERTEX</text>
  <text x="200" y="335" font-family="Arial, sans-serif" font-size="16" fill="#4A90C8" text-anchor="middle" letter-spacing="3">ULTRASOUND</text>
</svg>
